<svg xmlns="http://www.w3.org/2000/svg" viewBox="0 0 53.942 49.809">
  <defs>
    <style>
      .cls-1 {
        fill: #fff;
      }
    </style>
  </defs>
  <path id="Bird-White" class="cls-1" d="M52.042,41.811c-13.81-1.9-19.03-2.284-19.139-1.74s5.328,2.066,5.22,2.61-4.839-1.3-9.569,0c-7.014,1.957-10.929,9.95-10.439,10.439.435.381,4.676-3.969,5.22-3.48.435.381-1.957,2.936-3.48,6.09C15.776,64.157,19.637,74,19.854,74a57.72,57.72,0,0,1,0-6.09c.054-.761.326-5.22.87-5.22.489,0,.272,3.48,1.74,7.829.761,2.284,2.5,7.177,6.959,10.439a13.2,13.2,0,0,0,6.09,2.61,8.089,8.089,0,0,1-3.48-2.61c-.707-1.033-1.2-2.392-.87-2.61.326-.272,1.359.761,2.61,1.74a12.726,12.726,0,0,0,8.7,2.61,12.751,12.751,0,0,0,6.09-2.61c.707-.489,2.882-1.957,2.61-2.61-.435-1.033-6.035.326-6.09,0a21.473,21.473,0,0,0,3.48-1.74c.979-.707,1.849-1.631,1.74-1.74s-.816.489-1.74.87c-2.338.924-4.785-.272-6.09-.87-2.719-1.251-4.513-3.262-4.35-3.48s2.012,1.251,5.22,1.74c1.251.163,2.555.217,2.61,0,.054-.326-3.752-1.359-8.7-3.48a8.71,8.71,0,0,1-3.48-2.61c-.544-.707-1.033-1.577-.87-1.74.272-.217,1.686,1.631,4.35,2.61.381.109,3.425,1.2,4.35,0a1.468,1.468,0,0,0,0-1.74c-.489-.652-1.794-.163-2.61,0-2.012.381-3.915-.6-7.829-2.61C27.3,60.678,25.4,59.7,24.2,57.47c-1.033-1.957-1.2-4.241-.87-4.35.217-.054.6,1.359,1.74,2.61,1.359,1.468,3.045,1.9,6.09,2.61,6.742,1.522,6.144,1.251,7.829,1.74,3.915,1.2,5.818,1.794,7.829,3.48,1.686,1.359,2.012,2.392,3.48,2.61,2.12.326,3.915-1.359,4.35-.87.272.381-.652,1.087-.87,2.61a5.082,5.082,0,0,0,1.74,4.35c.435.326,1.577,1.359,2.61.87s1.359-2.175.87-2.61c-.381-.326-1.033.326-1.74,0-.816-.435-.87-1.9-.87-2.61a5.923,5.923,0,0,1,.87-3.48c.816-1.251,1.631-1.2,4.35-2.61l5.22-2.61s-1.3,1.9-1.74,2.61a19.5,19.5,0,0,0-2.61,6.09c-.6,3.1-.272,3.48-.87,5.22A14.673,14.673,0,0,1,59,77.478a26.393,26.393,0,0,1-6.959,6.09,26.221,26.221,0,0,1-11.309,3.48,25.627,25.627,0,0,1-13.049-2.61,26.126,26.126,0,0,1-10.439-9.569,24.116,24.116,0,0,1-4.35-13.919,23.676,23.676,0,0,1,5.22-13.919,22.96,22.96,0,0,1,21.748-9.569A26.261,26.261,0,0,1,52.042,41.811Z" transform="translate(-12.888 -37.296)"/>
</svg>
